<svg width="1081" height="579" viewBox="0 0 1081 579" fill="none" xmlns="http://www.w3.org/2000/svg">
<path d="M208.126 578.861C165.366 578.861 128.273 570.876 96.8476 554.906C65.937 538.42 41.9813 514.722 24.9804 483.811C8.49478 452.901 0.251953 415.293 0.251953 370.987V342.395H125.44V377.942C125.44 402.671 132.652 422.763 147.077 438.218C162.018 453.158 182.367 460.628 208.126 460.628C233.37 460.628 253.204 453.158 267.629 438.218C282.569 422.763 290.039 402.671 290.039 377.942V95.1102H416.772V370.987C416.772 415.293 408.272 452.901 391.271 483.811C374.786 514.722 350.83 538.42 319.404 554.906C288.493 570.876 251.401 578.861 208.126 578.861ZM65.937 110.565V0.0600586H416.772V110.565H65.937Z" fill="url(#paint0_linear_83_8)"/>
<path d="M456.63 564.179V0.0600586H631.275L760.327 316.894H775.01L902.516 0.0600586H1080.25V564.179H955.064V82.7459L972.838 84.2915L823.694 449.809H703.142L553.226 84.2915L572.545 82.7459V564.179H456.63Z" fill="url(#paint1_linear_83_8)"/>
<defs>
<linearGradient id="paint0_linear_83_8" x1="-26.022" y1="245.33" x2="1143.41" y2="255.991" gradientUnits="userSpaceOnUse">
<stop stop-color="#F54900"/>
<stop offset="0.5" stop-color="#FF8904"/>
<stop offset="1" stop-color="#F54900"/>
</linearGradient>
<linearGradient id="paint1_linear_83_8" x1="-26.022" y1="245.33" x2="1143.41" y2="255.991" gradientUnits="userSpaceOnUse">
<stop stop-color="#F54900"/>
<stop offset="0.5" stop-color="#FF8904"/>
<stop offset="1" stop-color="#F54900"/>
</linearGradient>
</defs>
</svg>
